<svg id="Layer_1" data-name="Layer 1" xmlns="http://www.w3.org/2000/svg" viewBox="0 0 157.07 157.07"><defs><style>.cls-1{fill:#395bc6;}.cls-1,.cls-2{stroke:#000;stroke-miterlimit:10;}.cls-2{fill:#fff;}.cls-3{fill:#0c0c0c;}</style></defs><circle class="cls-1" cx="78.54" cy="78.54" r="78.04"/><circle class="cls-2" cx="78.54" cy="79.03" r="61.69"/><path class="cls-3" d="M234.57,83.14,243.24,93l-10,9.47L224,93.81q-6.17,14.64-12.32,29.29l11.66,1.43-.23,14.68-11.27,1.92q6.28,14.35,12.58,28.72l7.69-8.61,11.13,10.18-9,8.32,31.23,13.08q-.35-6-.7-11.93l16.34.24q.47,5.72.92,11.42l28.62-12.31-8.46-7.87,10.18-10.19,8.78,7.64q6.25-14.15,12.49-28.29l-12-2.56-.24-14.92,12.07-3.65q-4.63-11.46-9.26-22.93l-12.52,4.79L301.5,91.13l6.06-10.52L284.77,71,280,83.32l-14.5-.24-2.58-12.42Z" transform="translate(-194.25 -52.53)"/><path class="cls-2" d="M302.68,105.11c-1.64-1.81-13.53-14.47-32.52-13.74-2.6.1-20.24,1.08-31.49,16.42-1.38,1.89-10.93,15.37-6.72,32.84a40.56,40.56,0,0,0,15.16,22.74l10.73,5.37a47.51,47.51,0,0,0,30-.16,38.37,38.37,0,0,0,15.79-9.79c11.16-11.81,10.26-27.62,10-31.07l-36.19-.34-.49,15.92,14.91.17c-1.06,1.48-6.38,8.62-16,10a22.68,22.68,0,0,1-12.61-1.78c-9.06-4.23-11.78-13.27-12.19-14.71-2.07-7.34-1-17.48,6.4-23.84,8-6.85,18-4.8,19.42-4.5a23.89,23.89,0,0,1,14.3,9.69Z" transform="translate(-194.25 -52.53)"/></svg>